# xmcd CD database file
#
# Track frame offsets:
#	150
#	21092
#	39490
#	57880
#	74460
#	97165
#	117317
#	138227
#	160565
#	177052
#	196500
#	211357
#	227480
#
# Disc length: 3297 seconds
#
# Revision: 0
# Processed by: cddbd v1.5.2PL0 Copyright (c) Steve Scherf et al.
# Submitted via: CDex 1.70beta2
#
DISCID=a60cdf0d
DTITLE=Dr. Mo's Bad Medicine - Confidence
DYEAR=1995
DGENRE=Country
TTITLE0=Brave new world
TTITLE1=Get out
TTITLE2=Livin' in darkness
TTITLE3=Never leave you alone
TTITLE4=Looser
TTITLE5=Taste of paradise
TTITLE6=Nasty girl
TTITLE7=Confidence
TTITLE8=Action
TTITLE9=Love and hate
TTITLE10=Comin' out of trouble
TTITLE11=Teenage love
TTITLE12=After all
EXTD=YEAR: 1995
EXTT0=
EXTT1=
EXTT2=
EXTT3=
EXTT4=
EXTT5=
EXTT6=
EXTT7=
EXTT8=
EXTT9=
EXTT10=
EXTT11=
EXTT12=
PLAYORDER=
